<svg width="240" height="240" viewBox="0 0 240 240" fill="none" xmlns="http://www.w3.org/2000/svg">
  <rect width="240" height="240" rx="52" fill="#102923"/>
  <path d="M119.855 131.013C129.76 125.008 143.886 116.7 154.993 116.7C172.77 116.7 187.633 129.285 187.633 153.194C187.633 191.334 142.29 226.498 78.2165 211.182C78.0048 211.131 77.7973 211.292 77.7973 211.508V232.126C77.7973 232.266 77.882 232.388 78.0133 232.439C86.8466 235.742 96.1753 238.033 105.856 239.168C180.926 247.993 245.787 185.376 239.6 110.044C237.826 88.443 230.517 68.579 218.736 51.776C218.647 51.649 218.491 51.569 218.27 51.683L119.914 108.532C108.735 114.909 95.879 122.887 84.793 122.887C67.016 122.887 52.153 110.302 52.153 86.394C52.153 48.249 97.501 13.089 161.574 28.41C161.786 28.461 161.989 28.304 161.989 28.084V7.783C161.989 7.643 161.904 7.516 161.773 7.47C148.76 2.642 134.693 0 120.003 0C53.728 0 0 53.724 0 119.999C0 145.14 7.737 168.472 20.953 187.752C21.055 187.896 21.249 187.943 21.402 187.854L119.855 131.013Z" fill="#E8FBF7"/>
</svg>
